<svg width="261" height="261" viewBox="0 0 261 261" fill="none" xmlns="http://www.w3.org/2000/svg">
<path d="M260.832 160.51C260.888 186.939 250.59 212.323 232.178 231.139C213.767 249.956 188.729 260.685 162.511 260.993C136.293 261.301 111.015 251.163 92.1729 232.783C73.3311 214.404 62.4497 189.269 61.8949 162.846H102.798C103.342 174.4 107.239 185.54 114.005 194.884C120.771 204.227 130.109 211.363 140.861 215.407C151.612 219.451 163.305 220.225 174.489 217.633C185.674 215.041 195.857 209.197 203.777 200.825C211.697 192.454 217.005 181.923 219.043 170.54C221.082 159.156 219.76 147.419 215.243 136.785C210.726 126.151 203.211 117.088 193.631 110.718C184.052 104.349 172.828 100.954 161.352 100.954H160.936V60.2335H161.352C187.736 60.2335 213.039 70.7983 231.695 89.6037C250.351 108.409 260.832 133.915 260.832 160.51Z" fill="white"/>
<path d="M193.325 160.463C193.357 168.826 190.163 176.873 184.418 182.906C178.672 188.938 170.826 192.484 162.536 192.793C154.245 193.102 146.16 190.151 139.989 184.562C133.817 178.974 130.042 171.187 129.461 162.845H160.96V128.225H161.376C169.852 128.234 177.979 131.634 183.969 137.679C189.96 143.724 193.325 151.919 193.325 160.463Z" fill="white"/>
<path d="M27.0664 151.891C27.0664 152.548 27.0664 153.195 27.0664 153.841C19.5253 152.658 12.6523 148.797 7.68862 142.953C2.72496 137.11 -0.00210951 129.67 1.9808e-06 121.977L1.9808e-06 32.3938C-0.00147626 28.1612 0.824449 23.9699 2.43063 20.0592C4.03681 16.1486 6.39178 12.5953 9.36088 9.60242C12.33 6.60956 15.8551 4.23577 19.7346 2.61673C23.6142 0.997696 27.7723 0.165141 31.9712 0.166631L120.843 0.166631C127.999 0.162576 134.95 2.57981 140.582 7.03113C146.213 11.4824 150.2 17.7102 151.903 24.7169C118.669 25.0575 86.9118 38.6078 63.5353 62.422C40.1589 86.2362 27.0529 118.389 27.0664 151.891Z" fill="white"/>
<path d="M160.936 60.2335V100.954C145.46 101.065 130.655 107.339 119.749 118.408C108.844 129.478 102.722 144.444 102.72 160.045C102.72 160.975 102.72 161.916 102.798 162.846H61.8949C61.8949 162.075 61.8949 161.281 61.8949 160.51C61.8946 133.991 72.3153 108.552 90.8766 89.7596C109.438 70.9669 134.628 60.3505 160.936 60.2335Z" fill="white"/>
<path d="M160.936 128.225V162.845H129.437C129.437 162.051 129.347 161.269 129.347 160.463C129.349 151.982 132.665 143.844 138.578 137.81C144.49 131.776 152.523 128.332 160.936 128.225Z" fill="white"/>
</svg>
