<svg width="1054" height="277" viewBox="0 0 1054 277" fill="none" xmlns="http://www.w3.org/2000/svg">
<path d="M343.014 34.4C350.95 34.4 357.82 35.7227 363.622 38.368C369.51 41.0133 374.033 44.768 377.19 49.632C380.348 54.496 381.926 60.256 381.926 66.912C381.926 73.4827 380.348 79.2427 377.19 84.192C374.033 89.056 369.51 92.8107 363.622 95.456C357.82 98.016 350.95 99.296 343.014 99.296H324.966V124H304.23V34.4H343.014ZM341.862 82.4C348.092 82.4 352.828 81.0773 356.07 78.432C359.313 75.7013 360.934 71.8613 360.934 66.912C360.934 61.8773 359.313 58.0373 356.07 55.392C352.828 52.6613 348.092 51.296 341.862 51.296H324.966V82.4H341.862ZM427.42 125.536C420.338 125.536 413.468 124.597 406.812 122.72C400.242 120.757 394.951 118.24 390.94 115.168L397.98 99.552C401.82 102.368 406.386 104.629 411.676 106.336C416.967 108.043 422.258 108.896 427.548 108.896C433.436 108.896 437.788 108.043 440.604 106.336C443.42 104.544 444.828 102.197 444.828 99.296C444.828 97.1627 443.975 95.4133 442.268 94.048C440.647 92.5973 438.514 91.4453 435.868 90.592C433.308 89.7387 429.81 88.8 425.372 87.776C418.546 86.1547 412.956 84.5333 408.604 82.912C404.252 81.2907 400.498 78.688 397.34 75.104C394.268 71.52 392.732 66.7413 392.732 60.768C392.732 55.5627 394.14 50.8693 396.956 46.688C399.772 42.4213 403.996 39.0507 409.628 36.576C415.346 34.1013 422.3 32.864 430.492 32.864C436.21 32.864 441.799 33.5467 447.26 34.912C452.722 36.2773 457.5 38.24 461.596 40.8L455.196 56.544C446.919 51.8507 438.642 49.504 430.364 49.504C424.562 49.504 420.252 50.4427 417.436 52.32C414.706 54.1973 413.34 56.672 413.34 59.744C413.34 62.816 414.919 65.12 418.076 66.656C421.319 68.1067 426.226 69.5573 432.796 71.008C439.623 72.6293 445.212 74.2507 449.564 75.872C453.916 77.4933 457.628 80.0533 460.7 83.552C463.858 87.0507 465.436 91.7867 465.436 97.76C465.436 102.88 463.986 107.573 461.084 111.84C458.268 116.021 454.002 119.349 448.284 121.824C442.567 124.299 435.612 125.536 427.42 125.536ZM518.389 34.4C526.325 34.4 533.195 35.7227 538.997 38.368C544.885 41.0133 549.408 44.768 552.565 49.632C555.723 54.496 557.301 60.256 557.301 66.912C557.301 73.4827 555.723 79.2427 552.565 84.192C549.408 89.056 544.885 92.8107 538.997 95.456C533.195 98.016 526.325 99.296 518.389 99.296H500.341V124H479.605V34.4H518.389ZM517.237 82.4C523.467 82.4 528.203 81.0773 531.445 78.432C534.688 75.7013 536.309 71.8613 536.309 66.912C536.309 61.8773 534.688 58.0373 531.445 55.392C528.203 52.6613 523.467 51.296 517.237 51.296H500.341V82.4H517.237ZM691.141 124L691.013 70.24L664.645 114.528H655.301L629.061 71.392V124H609.605V34.4H626.757L660.293 90.08L693.317 34.4H710.341L710.597 124H691.141ZM763.215 125.024C755.962 125.024 749.434 123.531 743.631 120.544C737.914 117.472 733.434 113.248 730.191 107.872C726.949 102.496 725.327 96.3947 725.327 89.568C725.327 82.7413 726.949 76.64 730.191 71.264C733.434 65.888 737.914 61.7067 743.631 58.72C749.434 55.648 755.962 54.112 763.215 54.112C770.469 54.112 776.954 55.648 782.671 58.72C788.389 61.7067 792.869 65.888 796.111 71.264C799.354 76.64 800.975 82.7413 800.975 89.568C800.975 96.3947 799.354 102.496 796.111 107.872C792.869 113.248 788.389 117.472 782.671 120.544C776.954 123.531 770.469 125.024 763.215 125.024ZM763.215 108.64C768.335 108.64 772.517 106.933 775.759 103.52C779.087 100.021 780.751 95.3707 780.751 89.568C780.751 83.7653 779.087 79.1573 775.759 75.744C772.517 72.2453 768.335 70.496 763.215 70.496C758.095 70.496 753.871 72.2453 750.543 75.744C747.215 79.1573 745.551 83.7653 745.551 89.568C745.551 95.3707 747.215 100.021 750.543 103.52C753.871 106.933 758.095 108.64 763.215 108.64ZM855.026 54.112C861.426 54.112 867.229 55.6053 872.434 58.592C877.725 61.4933 881.864 65.632 884.85 71.008C887.837 76.2987 889.33 82.4853 889.33 89.568C889.33 96.6507 887.837 102.88 884.85 108.256C881.864 113.547 877.725 117.685 872.434 120.672C867.229 123.573 861.426 125.024 855.026 125.024C845.554 125.024 838.344 122.037 833.394 116.064V124H814.322V29.024H834.29V62.432C839.325 56.8853 846.237 54.112 855.026 54.112ZM851.57 108.64C856.69 108.64 860.872 106.933 864.114 103.52C867.442 100.021 869.106 95.3707 869.106 89.568C869.106 83.7653 867.442 79.1573 864.114 75.744C860.872 72.2453 856.69 70.496 851.57 70.496C846.45 70.496 842.226 72.2453 838.898 75.744C835.656 79.1573 834.034 83.7653 834.034 89.568C834.034 95.3707 835.656 100.021 838.898 103.52C842.226 106.933 846.45 108.64 851.57 108.64ZM902.697 55.136H922.665V124H902.697V55.136ZM912.681 45.536C909.012 45.536 906.025 44.4693 903.721 42.336C901.417 40.2027 900.265 37.5573 900.265 34.4C900.265 31.2427 901.417 28.5973 903.721 26.464C906.025 24.3307 909.012 23.264 912.681 23.264C916.351 23.264 919.337 24.288 921.641 26.336C923.945 28.384 925.097 30.944 925.097 34.016C925.097 37.344 923.945 40.1173 921.641 42.336C919.337 44.4693 916.351 45.536 912.681 45.536ZM941.197 29.024H961.165V124H941.197V29.024ZM1047.15 89.824C1047.15 90.08 1047.03 91.872 1046.77 95.2H994.673C995.612 99.4667 997.831 102.837 1001.33 105.312C1004.83 107.787 1009.18 109.024 1014.39 109.024C1017.97 109.024 1021.13 108.512 1023.86 107.488C1026.67 106.379 1029.28 104.672 1031.67 102.368L1042.29 113.888C1035.8 121.312 1026.33 125.024 1013.87 125.024C1006.11 125.024 999.239 123.531 993.265 120.544C987.292 117.472 982.684 113.248 979.441 107.872C976.199 102.496 974.577 96.3947 974.577 89.568C974.577 82.8267 976.156 76.768 979.313 71.392C982.556 65.9307 986.951 61.7067 992.497 58.72C998.129 55.648 1004.4 54.112 1011.31 54.112C1018.05 54.112 1024.16 55.5627 1029.62 58.464C1035.08 61.3653 1039.35 65.5467 1042.42 71.008C1045.57 76.384 1047.15 82.656 1047.15 89.824ZM1011.44 69.216C1006.92 69.216 1003.12 70.496 1000.05 73.056C996.977 75.616 995.1 79.1147 994.417 83.552H1028.34C1027.65 79.2 1025.78 75.744 1022.71 73.184C1019.63 70.5387 1015.88 69.216 1011.44 69.216Z" fill="white"/>
<path d="M260.832 176.51C260.888 202.939 250.59 228.323 232.178 247.139C213.767 265.956 188.729 276.685 162.511 276.993C136.293 277.301 111.015 267.163 92.1729 248.783C73.3311 230.404 62.4497 205.269 61.8949 178.846H102.798C103.342 190.4 107.239 201.54 114.005 210.884C120.771 220.227 130.109 227.363 140.861 231.407C151.612 235.451 163.305 236.225 174.489 233.633C185.674 231.041 195.857 225.197 203.777 216.825C211.697 208.454 217.005 197.923 219.043 186.54C221.082 175.156 219.76 163.419 215.243 152.785C210.726 142.151 203.211 133.088 193.631 126.718C184.052 120.349 172.828 116.954 161.352 116.954H160.936V76.2335H161.352C187.736 76.2335 213.039 86.7983 231.695 105.604C250.351 124.409 260.832 149.915 260.832 176.51Z" fill="white"/>
<path d="M193.325 176.463C193.357 184.826 190.163 192.873 184.418 198.906C178.672 204.938 170.826 208.484 162.536 208.793C154.245 209.102 146.16 206.151 139.989 200.562C133.817 194.974 130.042 187.187 129.461 178.845H160.96V144.225H161.376C169.852 144.234 177.979 147.634 183.969 153.679C189.96 159.724 193.325 167.919 193.325 176.463Z" fill="white"/>
<path d="M27.0664 167.891C27.0664 168.548 27.0664 169.195 27.0664 169.841C19.5253 168.658 12.6523 164.797 7.68862 158.953C2.72496 153.11 -0.00210951 145.67 1.9808e-06 137.977L1.9808e-06 48.3938C-0.00147626 44.1612 0.824449 39.9699 2.43063 36.0592C4.03681 32.1486 6.39178 28.5953 9.36088 25.6024C12.33 22.6096 15.8551 20.2358 19.7346 18.6167C23.6142 16.9977 27.7723 16.1651 31.9712 16.1666L120.843 16.1666C127.999 16.1626 134.95 18.5798 140.582 23.0311C146.213 27.4824 150.2 33.7102 151.903 40.7169C118.669 41.0575 86.9118 54.6078 63.5353 78.422C40.1589 102.236 27.0529 134.389 27.0664 167.891Z" fill="white"/>
<path d="M160.936 76.2335V116.954C145.46 117.065 130.655 123.339 119.749 134.408C108.844 145.478 102.722 160.444 102.72 176.045C102.72 176.975 102.72 177.916 102.798 178.846H61.8949C61.8949 178.075 61.8949 177.281 61.8949 176.51C61.8946 149.991 72.3153 124.552 90.8766 105.76C109.438 86.9669 134.628 76.3505 160.936 76.2335Z" fill="white"/>
<path d="M160.936 144.225V178.845H129.437C129.437 178.051 129.347 177.269 129.347 176.463C129.349 167.982 132.665 159.844 138.578 153.81C144.49 147.776 152.523 144.332 160.936 144.225Z" fill="white"/>
</svg>
