<svg width="36" height="36" viewBox="0 0 36 36" fill="none" xmlns="http://www.w3.org/2000/svg">
<path d="M18.5282 10.5368L18.5297 10.8688C18.5297 12.2485 18.4489 13.5063 18.3272 14.3262L18.2205 14.8361C18.1612 15.1061 18.0832 15.4136 18.0019 15.5706C17.7043 16.1448 17.1224 16.5 16.4996 16.5H16.4454C16.0393 16.4866 15.1864 16.1303 15.1864 16.1179C13.8139 15.542 11.1661 13.804 9.94312 12.5649L9.58775 12.1929C9.49468 12.0921 9.39013 11.9728 9.32522 11.8798C9.10841 11.5927 9 11.2375 9 10.8822C9 10.4857 9.1217 10.117 9.35181 9.81547L9.71693 9.42143L9.79874 9.33734C10.9084 8.13427 13.8057 6.16702 15.3214 5.56497L15.5502 5.47727C15.8256 5.37857 16.2114 5.26084 16.4454 5.25C16.743 5.25 17.0273 5.31919 17.2983 5.4555C17.6368 5.64655 17.9068 5.94809 18.0561 6.30333C18.1513 6.54911 18.3006 7.28747 18.3006 7.3009C18.4375 8.04538 18.5168 9.22014 18.5282 10.5368ZM25.875 10.8754C25.875 11.6613 25.244 12.2984 24.4657 12.2984L20.9977 11.9917C20.3871 11.9917 19.8921 11.4919 19.8921 10.8754C19.8921 10.2579 20.3871 9.75909 20.9977 9.75909L24.4657 9.45238C25.244 9.45238 25.875 10.0895 25.875 10.8754Z" fill="#7E00AA"/>
<path d="M16.3468 24.7132L16.3453 24.3812C16.3453 23.0015 16.4261 21.7437 16.5478 20.9238L16.6545 20.4139C16.7138 20.1439 16.7918 19.8364 16.8731 19.6794C17.1707 19.1052 17.7526 18.75 18.3754 18.75L18.4296 18.75C18.8357 18.7634 19.6886 19.1197 19.6886 19.1321C21.0611 19.708 23.7089 21.446 24.9319 22.6851L25.2873 23.0571C25.3803 23.1579 25.4849 23.2772 25.5498 23.3702C25.7666 23.6573 25.875 24.0125 25.875 24.3678C25.875 24.7643 25.7533 25.133 25.5232 25.4345L25.1581 25.8286L25.0763 25.9127C23.9666 27.1157 21.0693 29.083 19.5536 29.685L19.3248 29.7727C19.0494 29.8714 18.6636 29.9892 18.4296 30C18.132 30 17.8477 29.9308 17.5767 29.7945C17.2382 29.6035 16.9682 29.3019 16.8189 28.9467C16.7237 28.7009 16.5744 27.9625 16.5744 27.9491C16.4375 27.2046 16.3582 26.0299 16.3468 24.7132ZM9 24.3746C9 23.5887 9.63101 22.9516 10.4093 22.9516L13.8773 23.2583C14.4879 23.2583 14.9829 23.7581 14.9829 24.3746C14.9829 24.9921 14.4879 25.4909 13.8773 25.4909L10.4093 25.7976C9.63101 25.7976 9 25.1605 9 24.3746Z" fill="#FFBE0C"/>
</svg>
