<svg width="36" height="36" viewBox="0 0 36 36" fill="none" xmlns="http://www.w3.org/2000/svg">
<path opacity="0.4" d="M11.146 28.6028C12.391 28.6028 13.411 29.6228 13.411 30.8828C13.411 32.1278 12.391 33.1478 11.146 33.1478C9.88597 33.1478 8.86597 32.1278 8.86597 30.8828C8.86597 29.6228 9.88597 28.6028 11.146 28.6028ZM28.021 28.6028C29.266 28.6028 30.286 29.6228 30.286 30.8828C30.286 32.1278 29.266 33.1478 28.021 33.1478C26.761 33.1478 25.741 32.1278 25.741 30.8828C25.741 29.6228 26.761 28.6028 28.021 28.6028Z" fill="#7E00AA"/>
<path d="M4.32124 3.76201L7.89874 4.30201C8.40874 4.39351 8.78374 4.81201 8.82874 5.32201L9.11374 8.68201C9.15874 9.16351 9.54874 9.52351 10.0287 9.52351H30.2862C31.2012 9.52351 31.8012 9.83851 32.4012 10.5285C33.0012 11.2185 33.1062 12.2085 32.9712 13.107L31.5462 22.947C31.2762 24.8385 29.6562 26.232 27.7512 26.232H11.3862C9.39124 26.232 7.74124 24.702 7.57624 22.7235L6.19624 6.37201L3.93124 5.98201C3.33124 5.87701 2.91124 5.29201 3.01624 4.69201C3.12124 4.07701 3.70624 3.67201 4.32124 3.76201ZM25.3512 15.072H21.1962C20.5662 15.072 20.0712 15.567 20.0712 16.197C20.0712 16.812 20.5662 17.322 21.1962 17.322H25.3512C25.9812 17.322 26.4762 16.812 26.4762 16.197C26.4762 15.567 25.9812 15.072 25.3512 15.072Z" fill="#7E00AA"/>
</svg>
