<svg width="711" height="691" viewBox="0 0 711 691" fill="none" xmlns="http://www.w3.org/2000/svg">
<g clip-path="url(#clip0_163_1263)">
<path d="M755.68 492.66H27.03V780.15H755.68V492.66Z" fill="#A0A0A2"/>
<path d="M780.73 453.84H0V498.79H780.73V453.84Z" fill="#A7A7A9"/>
<path d="M490.33 397.57L358.51 295.79L338.94 312.7C338.94 312.7 413.66 439.91 447.47 442.58C481.28 445.25 490.33 397.57 490.33 397.57Z" fill="#F7B3BE"/>
<path d="M342.06 317.16C325.714 310.351 310.165 301.769 295.69 291.57C271.96 274.78 273.56 250.7 284.33 248.7C295.1 246.7 327.96 262.75 327.96 262.75C327.96 262.75 322.35 233.86 328.47 231.52C334.59 229.18 337.41 247.92 346.85 261.58C356.29 275.24 371.85 307.25 371.85 307.25C371.85 307.25 361.62 320.8 342.06 317.16Z" fill="#F7B3BE"/>
<path d="M329.6 266.21C329.147 266.212 328.706 266.061 328.35 265.78C315.53 255.52 288.51 249.33 288.24 249.26C287.977 249.209 287.727 249.106 287.504 248.957C287.282 248.807 287.092 248.615 286.945 248.391C286.798 248.167 286.698 247.915 286.651 247.652C286.603 247.388 286.609 247.117 286.668 246.856C286.727 246.595 286.838 246.348 286.994 246.13C287.15 245.913 287.349 245.729 287.577 245.589C287.806 245.449 288.06 245.357 288.325 245.318C288.59 245.279 288.861 245.293 289.12 245.36C290.27 245.62 317.3 251.82 330.85 262.65C331.263 262.982 331.528 263.464 331.587 263.991C331.645 264.518 331.491 265.046 331.16 265.46C330.973 265.694 330.735 265.883 330.465 266.012C330.195 266.142 329.9 266.21 329.6 266.21Z" fill="black"/>
<path d="M315.14 267.99C314.831 267.993 314.525 267.921 314.25 267.78C314.04 267.68 292.6 257.02 279.09 255.3C278.559 255.234 278.077 254.959 277.749 254.537C277.421 254.115 277.274 253.58 277.34 253.05C277.406 252.52 277.681 252.037 278.102 251.709C278.524 251.381 279.059 251.234 279.59 251.3C293.78 253.11 315.14 263.72 316.04 264.17C316.444 264.371 316.768 264.703 316.959 265.112C317.151 265.521 317.198 265.983 317.094 266.422C316.989 266.861 316.74 267.252 316.385 267.532C316.03 267.811 315.591 267.962 315.14 267.96V267.99Z" fill="black"/>
<path d="M311.81 278.89C311.457 278.883 311.112 278.783 310.81 278.6C299.999 272.425 288.207 268.153 275.95 265.97C275.426 265.882 274.959 265.59 274.65 265.158C274.342 264.726 274.217 264.189 274.305 263.665C274.393 263.141 274.685 262.674 275.117 262.365C275.549 262.057 276.086 261.933 276.61 262.02C289.386 264.257 301.671 268.715 312.91 275.19C313.276 275.417 313.559 275.755 313.718 276.156C313.876 276.556 313.901 276.997 313.788 277.413C313.676 277.828 313.432 278.196 313.094 278.463C312.756 278.729 312.34 278.879 311.91 278.89H311.81Z" fill="black"/>
<path d="M308.92 290.01C308.5 290.009 308.09 289.876 307.75 289.63C307.61 289.53 293.75 279.63 280.18 277.76C279.917 277.724 279.664 277.636 279.436 277.503C279.207 277.369 279.007 277.191 278.846 276.98C278.686 276.769 278.569 276.528 278.502 276.271C278.435 276.015 278.419 275.748 278.455 275.485C278.491 275.222 278.579 274.969 278.712 274.741C278.846 274.512 279.024 274.312 279.235 274.151C279.447 273.991 279.687 273.874 279.944 273.807C280.2 273.74 280.467 273.724 280.73 273.76C295.29 275.76 309.49 285.92 310.09 286.35C310.432 286.598 310.687 286.947 310.818 287.349C310.949 287.75 310.95 288.183 310.82 288.585C310.69 288.987 310.436 289.338 310.095 289.586C309.754 289.835 309.342 289.969 308.92 289.97V290.01Z" fill="black"/>
<path d="M309.81 291.34C309.298 291.341 308.805 291.145 308.433 290.794C308.061 290.442 307.838 289.961 307.81 289.45C306.89 271.21 316.42 261.23 316.81 260.82C316.99 260.617 317.208 260.454 317.453 260.338C317.698 260.223 317.964 260.158 318.234 260.148C318.505 260.138 318.774 260.184 319.027 260.281C319.279 260.378 319.509 260.526 319.703 260.715C319.897 260.904 320.05 261.131 320.154 261.381C320.258 261.631 320.31 261.899 320.306 262.17C320.303 262.44 320.245 262.708 320.136 262.955C320.027 263.203 319.868 263.425 319.67 263.61C319.59 263.7 310.96 272.84 311.79 289.24C311.803 289.503 311.765 289.766 311.677 290.013C311.588 290.261 311.452 290.489 311.276 290.684C311.099 290.879 310.886 291.038 310.648 291.15C310.41 291.263 310.153 291.327 309.89 291.34H309.81Z" fill="black"/>
<path d="M486.91 257.99L422.32 350.39L487.38 397.54L486.91 257.99Z" fill="#7E00AA"/>
<path d="M481.86 394.16H481.02C481.02 394.16 468.79 273.44 485.92 256.31C503.05 239.18 635.29 245.38 646.86 278.43C658.43 311.48 673.54 394.16 673.54 394.16H481.86Z" fill="#7E00AA"/>
<path d="M581.03 230.77C581.03 230.77 626.53 256.77 638.85 269.07C651.17 281.37 622.16 394.16 622.16 394.16H485.68C485.68 394.16 469.86 282.49 492.48 259.87C515.1 237.25 581.03 230.77 581.03 230.77Z" fill="#7E00AA"/>
<path d="M559.47 269.07C554.097 269.07 548.943 266.935 545.144 263.136C541.344 259.336 539.21 254.183 539.21 248.81V215.81H579.74V248.81C579.737 254.184 577.601 259.337 573.799 263.137C569.998 266.936 564.844 269.07 559.47 269.07Z" fill="#F7B3BE"/>
<path d="M491.54 123.01C491.54 123.01 486.45 224.79 509.85 236.76C533.25 248.73 569.04 241.45 578.15 230.93C587.26 220.41 578.15 120.09 578.15 120.09L519.42 100.03L491.54 123.01Z" fill="#F7B3BE"/>
<path d="M564.45 156.7C564.622 156.68 564.79 156.636 564.95 156.57C565.162 156.481 565.355 156.352 565.517 156.189C565.679 156.026 565.807 155.832 565.894 155.62C565.982 155.407 566.026 155.179 566.025 154.949C566.025 154.72 565.979 154.492 565.89 154.28C563.41 148.33 559.89 144.7 555.31 143.49C547.94 141.49 540.92 146.84 540.62 147.07C540.253 147.354 540.013 147.772 539.954 148.232C539.895 148.693 540.021 149.158 540.305 149.525C540.589 149.892 541.007 150.132 541.467 150.191C541.928 150.25 542.393 150.124 542.76 149.84C542.87 149.76 548.76 145.36 554.43 146.84C557.85 147.76 560.62 150.7 562.66 155.59C562.796 155.945 563.045 156.246 563.368 156.447C563.691 156.647 564.071 156.736 564.45 156.7Z" fill="black"/>
<path d="M487.8 148.82C487.8 148.82 481.4 126.2 502.31 122.36C523.22 118.52 561.22 121.93 561.22 121.93C561.22 121.93 559.08 130.93 561.65 133.45C564.22 135.97 571.46 136.02 571.46 141.56C571.46 147.1 571.04 152.66 572.74 156.93C574.44 161.2 581.74 171.87 581.74 171.87C581.74 171.87 598.39 140.71 594.12 130.87C589.85 121.03 581.74 119.77 581.74 119.77C581.74 119.77 586.43 104.41 574.48 99.28C562.53 94.15 509.6 101.85 509.6 101.85C509.6 101.85 494.23 86.91 486.97 99.28C479.71 111.65 485.69 121.91 485.69 121.91C485.69 121.91 471.58 134.31 487.8 148.82Z" fill="#181310"/>
<path d="M518.5 149.92C518.872 149.886 519.223 149.731 519.5 149.48C519.847 149.172 520.058 148.739 520.086 148.276C520.115 147.813 519.958 147.357 519.65 147.01C515.36 142.19 510.82 139.91 506.14 140.25C498.53 140.77 493.61 148.09 493.41 148.4C493.153 148.787 493.06 149.261 493.152 149.716C493.244 150.172 493.513 150.573 493.9 150.83C494.287 151.087 494.761 151.18 495.216 151.088C495.672 150.996 496.073 150.727 496.33 150.34C496.39 150.25 500.51 144.16 506.4 143.74C509.94 143.49 513.51 145.38 517.03 149.34C517.214 149.543 517.443 149.7 517.698 149.801C517.952 149.902 518.227 149.942 518.5 149.92Z" fill="black"/>
<path d="M537.83 245.11C546.666 244.056 555.17 241.105 562.76 236.46C562.961 236.337 563.135 236.175 563.271 235.983C563.408 235.791 563.505 235.574 563.555 235.344C563.606 235.114 563.61 234.876 563.566 234.644C563.523 234.413 563.433 234.193 563.302 233.997C563.172 233.801 563.003 233.633 562.806 233.504C562.609 233.375 562.388 233.287 562.156 233.245C561.924 233.203 561.687 233.209 561.457 233.261C561.227 233.314 561.011 233.412 560.82 233.55C560.53 233.74 531.91 252.39 509.56 233.18C486.83 213.65 493.22 124.04 493.29 123.18C493.318 122.721 493.164 122.269 492.861 121.923C492.559 121.576 492.132 121.363 491.673 121.329C491.214 121.295 490.761 121.442 490.41 121.74C490.06 122.038 489.84 122.462 489.8 122.92C489.52 126.68 483.22 215.21 507.28 235.92C517.23 244.39 528.25 246.1 537.83 245.11Z" fill="black"/>
<path d="M539.09 169.31C538.939 168.567 538.955 167.799 539.136 167.063C539.317 166.327 539.659 165.639 540.137 165.051C540.615 164.462 541.217 163.986 541.901 163.657C542.584 163.329 543.332 163.156 544.09 163.15C549.57 163.07 559.01 163.68 562.67 168.41C567.97 175.25 543.84 173.64 540.52 171.49C539.775 170.98 539.261 170.197 539.09 169.31Z" fill="white"/>
<path d="M549.58 173.5C552.38 173.5 554.65 171.23 554.65 168.43C554.65 165.63 552.38 163.36 549.58 163.36C546.78 163.36 544.51 165.63 544.51 168.43C544.51 171.23 546.78 173.5 549.58 173.5Z" fill="black"/>
<path d="M496.21 164.58C496.061 163.837 496.078 163.071 496.26 162.336C496.442 161.601 496.784 160.915 497.261 160.327C497.739 159.74 498.341 159.265 499.023 158.937C499.706 158.609 500.453 158.436 501.21 158.43C506.69 158.35 516.13 158.95 519.8 163.68C525.1 170.53 500.96 168.92 497.65 166.76C496.901 166.252 496.384 165.468 496.21 164.58Z" fill="white"/>
<path d="M505.29 168.78C508.09 168.78 510.36 166.51 510.36 163.71C510.36 160.91 508.09 158.64 505.29 158.64C502.49 158.64 500.22 160.91 500.22 163.71C500.22 166.51 502.49 168.78 505.29 168.78Z" fill="black"/>
<path d="M527.92 193.63C529.992 193.304 531.982 192.581 533.78 191.5C533.977 191.38 534.149 191.223 534.285 191.038C534.421 190.852 534.519 190.641 534.574 190.417C534.629 190.193 534.639 189.961 534.604 189.733C534.569 189.506 534.49 189.287 534.37 189.09C534.251 188.893 534.093 188.722 533.908 188.585C533.722 188.449 533.511 188.351 533.287 188.296C533.063 188.241 532.831 188.231 532.603 188.266C532.376 188.301 532.157 188.38 531.96 188.5C530.609 189.317 529.116 189.873 527.56 190.14C526.44 190.25 525.56 188.43 525.56 188.41C525.375 188.004 525.044 187.683 524.631 187.512C524.219 187.341 523.758 187.333 523.34 187.49C522.34 187.88 519.98 188.39 518.78 187.76C518.86 185.07 523.78 174.15 528.52 165.1C528.636 164.896 528.71 164.67 528.737 164.437C528.764 164.203 528.744 163.966 528.678 163.741C528.612 163.515 528.5 163.306 528.351 163.124C528.202 162.942 528.018 162.793 527.81 162.684C527.601 162.575 527.373 162.509 527.139 162.49C526.904 162.471 526.669 162.5 526.446 162.574C526.223 162.649 526.017 162.767 525.841 162.923C525.664 163.078 525.521 163.268 525.42 163.48C512.93 187.27 515.19 189.29 516.15 190.16C518.22 192.01 521.34 191.64 523.15 191.16C523.656 191.956 524.364 192.605 525.202 193.038C526.04 193.472 526.978 193.676 527.92 193.63Z" fill="black"/>
<path d="M529.13 206.99C534.291 206.366 539.168 204.285 543.19 200.99C543.379 200.852 543.538 200.677 543.657 200.476C543.777 200.275 543.855 200.052 543.888 199.82C543.92 199.588 543.905 199.352 543.845 199.126C543.784 198.9 543.679 198.689 543.535 198.504C543.391 198.319 543.212 198.166 543.007 198.051C542.803 197.937 542.578 197.865 542.345 197.84C542.113 197.814 541.877 197.836 541.653 197.903C541.429 197.97 541.22 198.081 541.04 198.23C528.9 207.68 518.85 201.88 518.42 201.63C518.022 201.391 517.546 201.321 517.096 201.433C516.646 201.546 516.259 201.832 516.02 202.23C515.783 202.627 515.713 203.102 515.823 203.551C515.933 204 516.216 204.388 516.61 204.63C520.448 206.668 524.814 207.491 529.13 206.99Z" fill="black"/>
<path d="M578.23 167.7C578.23 167.7 589.81 155.12 596.23 164.95C602.65 174.78 595.51 192.88 581.4 195.53L578.23 167.7Z" fill="#F7B3BE"/>
<path d="M585.48 185.8C585.793 185.767 586.091 185.651 586.344 185.465C586.597 185.279 586.796 185.029 586.92 184.74C588.68 180.56 585.98 177.36 583.49 175.67C586.58 170.21 592.82 171.13 593.1 171.17C593.548 171.224 593.999 171.104 594.36 170.833C594.721 170.563 594.964 170.163 595.037 169.718C595.111 169.273 595.01 168.817 594.755 168.444C594.5 168.072 594.112 167.813 593.67 167.72C590.762 167.238 587.776 167.769 585.213 169.225C582.649 170.682 580.664 172.975 579.59 175.72C579.427 176.136 579.429 176.599 579.596 177.014C579.764 177.429 580.084 177.764 580.49 177.95C580.67 178.04 585.05 180.12 583.69 183.35C583.572 183.63 583.529 183.936 583.565 184.237C583.601 184.539 583.715 184.826 583.896 185.07C584.077 185.314 584.318 185.507 584.595 185.63C584.873 185.752 585.178 185.801 585.48 185.77V185.8Z" fill="black"/>
<path d="M614.67 250.45L598.65 307.02L617.5 310.79L631.65 261.76L614.67 250.45Z" fill="#FCFBFF"/>
<path d="M498.7 249.97L509.07 306.08L530.52 305.84L515.67 243.38L498.7 249.97Z" fill="#FCFBFF"/>
<path d="M502.94 300.18L618.92 307.26L638.01 395.65L488.8 394.24L502.94 300.18Z" fill="#F4B834"/>
<path d="M479.84 125.98C479.84 125.98 476.54 100.05 489.74 95.34C502.94 90.63 531.23 93.45 546.31 103.34C561.39 113.23 558.1 130.7 558.1 130.7L479.84 125.98Z" fill="#F4B834"/>
<path d="M594.4 144.61L479.84 140.25V123.98L594.4 128.34V144.61Z" fill="#7E00AA"/>
<path d="M554.33 142.01C554.33 142.01 487.62 164.64 472.77 153.68C457.92 142.72 480.19 130.68 480.19 130.68L554.33 142.01Z" fill="#F4B834"/>
<path d="M480.55 126.81C480.085 126.82 479.631 126.668 479.266 126.38C478.901 126.091 478.647 125.685 478.55 125.23C478.4 124.53 474.92 108.03 482.76 98.23C486.41 93.66 491.83 91.31 498.87 91.23C499.4 91.23 499.909 91.4407 500.284 91.8158C500.659 92.1909 500.87 92.6996 500.87 93.23C500.87 93.7604 500.659 94.2691 500.284 94.6442C499.909 95.0193 499.4 95.23 498.87 95.23C493.09 95.23 488.71 97.12 485.87 100.7C479.2 109.07 482.41 124.24 482.44 124.39C482.505 124.686 482.502 124.993 482.431 125.288C482.361 125.583 482.224 125.857 482.031 126.092C481.838 126.326 481.595 126.513 481.319 126.639C481.044 126.765 480.743 126.827 480.44 126.82L480.55 126.81Z" fill="black"/>
<path d="M488.8 394.24L491.63 452.23L642.25 450.81L637.3 392.12L488.8 394.24Z" fill="#F4B834"/>
<path d="M642.25 270.48C642.25 270.48 631.65 290.28 630.94 322.11C630.23 353.94 637.3 392.11 637.3 392.11L699.54 394.23C699.54 394.23 697.41 326.35 642.25 270.48Z" fill="#7E00AA"/>
<path d="M639.66 389.52L541.84 433.13C541.84 433.13 474.3 435.25 471.12 444.8C467.94 454.35 475.36 457.18 484.55 457.18C493.74 457.18 531.55 462.48 539.36 460.36C547.17 458.24 548.91 456.12 548.91 456.12C548.91 456.12 699.06 460.71 703.31 448.46C707.56 436.21 695.31 388.11 695.31 388.11L639.66 389.52Z" fill="#F7B3BE"/>
<path d="M471.47 453.17C471.075 453.171 470.688 453.054 470.359 452.836C470.029 452.617 469.772 452.305 469.62 451.94C469.443 451.448 469.379 450.923 469.435 450.403C469.49 449.883 469.663 449.383 469.94 448.94C471.64 445.94 477.36 443.67 487.43 442.09C505.43 439.27 514.58 439.24 514.96 439.24C515.49 439.24 515.999 439.451 516.374 439.826C516.749 440.201 516.96 440.71 516.96 441.24C516.96 441.77 516.749 442.279 516.374 442.654C515.999 443.029 515.49 443.24 514.96 443.24C514.87 443.24 505.67 443.24 488.05 446.04C475.83 447.96 473.75 450.39 473.45 450.86C473.511 451.297 473.425 451.743 473.206 452.126C472.987 452.51 472.647 452.81 472.24 452.98C472 453.097 471.737 453.162 471.47 453.17Z" fill="black"/>
<path d="M778.18 499.25H27.7999C27.2695 499.25 26.7608 499.039 26.3857 498.664C26.0107 498.289 25.7999 497.78 25.7999 497.25C25.7999 496.72 26.0107 496.211 26.3857 495.836C26.7608 495.461 27.2695 495.25 27.7999 495.25H778.18C778.71 495.25 779.219 495.461 779.594 495.836C779.969 496.211 780.18 496.72 780.18 497.25C780.18 497.78 779.969 498.289 779.594 498.664C779.219 499.039 778.71 499.25 778.18 499.25Z" fill="black"/>
<path d="M253.73 405.17H201.73C198.626 405.17 196.11 407.686 196.11 410.79V454.44C196.11 457.544 198.626 460.06 201.73 460.06H253.73C256.834 460.06 259.35 457.544 259.35 454.44V410.79C259.35 407.686 256.834 405.17 253.73 405.17Z" fill="#423E3D"/>
<path d="M313.78 405.17H256.09C252.986 405.17 250.47 407.686 250.47 410.79V454.44C250.47 457.544 252.986 460.06 256.09 460.06H313.78C316.884 460.06 319.4 457.544 319.4 454.44V410.79C319.4 407.686 316.884 405.17 313.78 405.17Z" fill="#181310"/>
<path d="M266.6 405.39C266.6 405.39 267.22 372.16 254.47 376.39C227.36 385.32 232.14 404.46 232.14 404.46L266.6 405.39Z" fill="#A3A5A0"/>
<path d="M257.33 375.7H191.63C191.63 375.7 172.48 393.89 169.63 419.41C166.78 444.93 167.72 487.36 167.72 487.36H228.97V421.36C228.97 421.36 228 388.8 257.33 375.7Z" fill="white"/>
<path d="M213.93 440.15H178.95V443.47H213.93V440.15Z" fill="#181310"/>
<path d="M213.93 449.34H178.95V452.66H213.93V449.34Z" fill="#181310"/>
<path d="M213.93 458.53H178.95V461.85H213.93V458.53Z" fill="#181310"/>
<path d="M213.93 467.72H178.95V471.04H213.93V467.72Z" fill="#181310"/>
<path d="M321.33 411.81H459.68C461.56 411.811 463.412 411.361 465.083 410.5C466.754 409.638 468.194 408.389 469.284 406.857C470.373 405.325 471.08 403.555 471.346 401.694C471.611 399.833 471.427 397.936 470.81 396.16L441.33 311.51C440.624 309.483 439.306 307.727 437.557 306.483C435.808 305.24 433.716 304.571 431.57 304.57H290.13C288.48 304.571 286.855 304.966 285.389 305.723C283.924 306.48 282.66 307.577 281.705 308.922C280.75 310.267 280.13 311.821 279.898 313.454C279.666 315.087 279.828 316.752 280.37 318.31L310.21 403.91C311.015 406.218 312.518 408.218 314.51 409.633C316.503 411.049 318.886 411.809 321.33 411.81Z" fill="#423E3D"/>
<path d="M317.27 412.63H455.62C457.5 412.63 459.353 412.179 461.023 411.316C462.694 410.453 464.133 409.203 465.222 407.67C466.311 406.137 467.016 404.366 467.281 402.505C467.545 400.643 467.359 398.745 466.74 396.97L437.24 312.32C436.536 310.294 435.219 308.538 433.472 307.294C431.725 306.051 429.634 305.382 427.49 305.38H286.07C284.42 305.381 282.795 305.776 281.329 306.533C279.864 307.29 278.601 308.387 277.645 309.732C276.69 311.077 276.07 312.631 275.838 314.264C275.606 315.897 275.768 317.562 276.31 319.12L306.14 404.72C306.945 407.03 308.449 409.033 310.443 410.45C312.438 411.868 314.823 412.629 317.27 412.63Z" fill="#181310"/>
<path d="M415.83 406.94H374.12V444.31H415.83V406.94Z" fill="#181310"/>
<path d="M400.12 406.94H358.41V444.31H400.12V406.94Z" fill="#2B2928"/>
<path d="M465.93 439.84H358.28V458.53H465.93V439.84Z" fill="#181310"/>
<path d="M399.71 439.84H320.5V458.53H399.71V439.84Z" fill="#423E3D"/>
<path d="M270.927 170.071L184.827 114.199C179.962 111.043 173.46 112.427 170.303 117.292L135.111 171.524C131.954 176.389 133.339 182.891 138.203 186.048L224.304 241.919C229.169 245.076 235.671 243.692 238.828 238.827L274.02 184.595C277.176 179.73 275.792 173.228 270.927 170.071Z" fill="#5E0782"/>
<path d="M268.844 163.779L182.743 107.907C177.878 104.75 171.376 106.135 168.219 110.999L133.027 165.232C129.871 170.096 131.255 176.599 136.12 179.755L222.22 235.627C227.085 238.784 233.587 237.399 236.744 232.535L271.936 178.302C275.093 173.438 273.708 166.935 268.844 163.779Z" fill="#7E00AA"/>
<path d="M185.34 151.26C190.774 151.26 195.18 146.854 195.18 141.42C195.18 135.986 190.774 131.58 185.34 131.58C179.906 131.58 175.5 135.986 175.5 141.42C175.5 146.854 179.906 151.26 185.34 151.26Z" fill="#F4B834"/>
<path d="M189.079 172.953C192.314 167.968 187.338 158.996 177.966 152.914C168.594 146.832 158.373 145.943 155.139 150.928C151.904 155.913 156.879 164.885 166.252 170.967C175.624 177.048 185.844 177.938 189.079 172.953Z" fill="#F4B834"/>
<path d="M253.338 178.414L212.779 152.095L210.275 155.953L250.834 182.273L253.338 178.414Z" fill="white"/>
<path d="M250.838 180.931L210.224 154.822L207.74 158.686L248.354 184.795L250.838 180.931Z" fill="white"/>
<path d="M242.05 195.801L201.491 169.482L198.987 173.341L239.546 199.66L242.05 195.801Z" fill="white"/>
<path d="M246.77 73.38C265.415 73.38 280.53 58.2651 280.53 39.62C280.53 20.9749 265.415 5.86 246.77 5.86C228.125 5.86 213.01 20.9749 213.01 39.62C213.01 58.2651 228.125 73.38 246.77 73.38Z" fill="#F28B36"/>
<path d="M246.45 67.52C265.095 67.52 280.21 52.4051 280.21 33.76C280.21 15.1149 265.095 0 246.45 0C227.805 0 212.69 15.1149 212.69 33.76C212.69 52.4051 227.805 67.52 246.45 67.52Z" fill="#F4B834"/>
<path d="M254.69 35.3C255.627 36.5094 256.262 37.9255 256.54 39.43C256.788 41.0909 256.474 42.787 255.65 44.25C254.941 45.7252 253.905 47.0196 252.621 48.0349C251.337 49.0503 249.839 49.7599 248.24 50.11C244.907 50.8967 241.163 50.45 237.01 48.77L233.32 53.43L228.59 51.01L232.29 46.35C230.297 45.0803 228.455 43.5873 226.8 41.9C225.393 40.5124 224.212 38.913 223.3 37.16L229.45 32.93C230.262 34.51 231.27 35.9815 232.45 37.31C233.677 38.6705 235.083 39.858 236.63 40.84L242.33 33.7C240.963 32.4047 239.696 31.0073 238.54 29.52C237.583 28.2649 236.944 26.7962 236.68 25.24C236.435 23.5153 236.765 21.7579 237.62 20.24C238.585 18.26 240.13 16.6206 242.05 15.54C244.063 14.4513 246.334 13.9327 248.62 14.04C251.33 14.1569 253.993 14.7846 256.47 15.89L260.16 11.23L264.88 13.64L261.16 18.35C264.111 20.1384 266.613 22.5813 268.47 25.49L262.6 29.87C261.183 27.4186 259.202 25.341 256.82 23.81L250.91 31.27C252.272 32.5139 253.536 33.8613 254.69 35.3ZM245.63 25.24C245.979 26.119 246.488 26.9259 247.13 27.62L251.97 21.52C250.746 21.1007 249.429 21.0349 248.17 21.33C247.671 21.4472 247.202 21.6668 246.792 21.975C246.382 22.2831 246.041 22.673 245.79 23.12C245.617 23.4426 245.513 23.7979 245.485 24.163C245.458 24.5282 245.507 24.8951 245.63 25.24ZM245.16 43.32C245.633 43.2016 246.075 42.9832 246.456 42.6796C246.837 42.376 247.149 41.9942 247.37 41.56C247.98 40.37 247.56 38.96 246.09 37.33L241.5 43.14C242.679 43.5411 243.947 43.6034 245.16 43.32Z" fill="#F28B36"/>
<path d="M253.51 33.59C254.434 34.7965 255.057 36.2052 255.33 37.7C255.578 39.3609 255.264 41.057 254.44 42.52C253.731 43.9953 252.695 45.2896 251.411 46.305C250.127 47.3203 248.629 48.0299 247.03 48.38C243.697 49.1733 239.953 48.7267 235.8 47.04L232.11 51.7L227.39 49.28L231.08 44.62C229.087 43.3503 227.245 41.8573 225.59 40.17C224.183 38.7824 223.002 37.183 222.09 35.43L228.25 31.2C229.058 32.7824 230.067 34.2544 231.25 35.58C232.479 36.9382 233.885 38.1255 235.43 39.11L241.12 31.96C239.753 30.6646 238.486 29.2673 237.33 27.78C236.373 26.5249 235.734 25.0562 235.47 23.5C235.225 21.7753 235.555 20.0179 236.41 18.5C237.375 16.52 238.92 14.8806 240.84 13.8C242.852 12.71 245.125 12.1945 247.41 12.31C250.12 12.4185 252.784 13.043 255.26 14.15L258.95 9.48999L263.67 11.9L259.95 16.61C262.921 18.3757 265.447 20.8016 267.33 23.7L261.46 28.08C260.043 25.6286 258.062 23.551 255.68 22.02L249.77 29.48C251.124 30.7484 252.375 32.1227 253.51 33.59ZM244.45 23.53C244.799 24.409 245.307 25.2159 245.95 25.91L250.8 19.81C249.573 19.391 248.253 19.3251 246.99 19.62C246.491 19.7372 246.022 19.9568 245.612 20.265C245.202 20.5731 244.861 20.963 244.61 21.41C244.437 21.7326 244.333 22.0879 244.305 22.453C244.278 22.8182 244.327 23.1851 244.45 23.53ZM243.98 41.61C244.453 41.4928 244.896 41.2749 245.277 40.9712C245.658 40.6675 245.97 40.285 246.19 39.85C246.81 38.6633 246.383 37.2533 244.91 35.62L240.32 41.43C241.499 41.8311 242.767 41.8934 243.98 41.61Z" fill="#F4CF84"/>
<path d="M347.32 172.77C365.965 172.77 381.08 157.655 381.08 139.01C381.08 120.365 365.965 105.25 347.32 105.25C328.675 105.25 313.56 120.365 313.56 139.01C313.56 157.655 328.675 172.77 347.32 172.77Z" fill="#F28B36"/>
<path d="M341.98 170.35C360.625 170.35 375.74 155.235 375.74 136.59C375.74 117.945 360.625 102.83 341.98 102.83C323.335 102.83 308.22 117.945 308.22 136.59C308.22 155.235 323.335 170.35 341.98 170.35Z" fill="#F4B834"/>
<path d="M347.15 129.99C348.656 129.718 350.206 129.81 351.67 130.26C353.256 130.799 354.616 131.856 355.53 133.26C356.512 134.57 357.182 136.087 357.489 137.695C357.796 139.303 357.731 140.961 357.3 142.54C356.46 145.873 354.333 148.987 350.92 151.88L353.35 157.31L349.02 160.38L346.6 154.95C344.552 156.134 342.374 157.077 340.11 157.76C338.229 158.364 336.266 158.674 334.29 158.68L333.38 151.26C337.011 151.283 340.583 150.341 343.73 148.53L340.02 140.18C338.237 140.787 336.412 141.265 334.56 141.61C333.005 141.872 331.41 141.756 329.91 141.27C328.266 140.689 326.86 139.582 325.91 138.12C324.603 136.344 323.864 134.214 323.79 132.01C323.755 129.725 324.347 127.473 325.5 125.5C326.852 123.15 328.637 121.077 330.76 119.39L328.34 113.96L332.66 110.89L335.12 116.36C338.068 114.573 341.386 113.485 344.82 113.18L345.99 120.42C343.177 120.549 340.435 121.344 337.99 122.74L341.88 131.43C343.597 130.814 345.358 130.332 347.15 129.99ZM334.04 133.37C334.979 133.475 335.93 133.397 336.84 133.14L333.68 126.02C332.744 126.917 332.076 128.056 331.75 129.31C331.623 129.807 331.601 130.325 331.685 130.832C331.769 131.338 331.958 131.821 332.24 132.25C332.445 132.552 332.711 132.808 333.021 133.001C333.331 133.194 333.678 133.32 334.04 133.37ZM349.86 142.14C349.974 141.667 349.985 141.174 349.892 140.696C349.799 140.218 349.604 139.766 349.32 139.37C348.553 138.27 347.103 137.997 344.97 138.55L347.97 145.31C348.887 144.453 349.542 143.354 349.86 142.14Z" fill="#F28B36"/>
<path d="M345.09 130.24C346.597 129.966 348.148 130.062 349.61 130.52C351.199 131.055 352.559 132.113 353.47 133.52C354.453 134.83 355.123 136.347 355.43 137.955C355.737 139.563 355.672 141.221 355.24 142.8C354.4 146.133 352.273 149.243 348.86 152.13L351.29 157.57L346.96 160.63L344.54 155.2C342.49 156.381 340.312 157.327 338.05 158.02C336.17 158.626 334.206 158.933 332.23 158.93L331.32 151.51C333.105 151.525 334.884 151.304 336.61 150.85C338.382 150.39 340.084 149.694 341.67 148.78L337.96 140.43C336.18 141.047 334.354 141.525 332.5 141.86C330.943 142.13 329.343 142.017 327.84 141.53C326.193 140.95 324.785 139.838 323.84 138.37C322.533 136.598 321.794 134.471 321.72 132.27C321.681 129.981 322.272 127.725 323.43 125.75C324.783 123.403 326.567 121.333 328.69 119.65L326.27 114.21L330.59 111.14L333.05 116.62C335.998 114.833 339.316 113.745 342.75 113.44L343.92 120.67C341.106 120.8 338.363 121.598 335.92 123L339.81 131.68C341.531 131.068 343.296 130.587 345.09 130.24ZM331.98 133.63C332.92 133.725 333.869 133.647 334.78 133.4L331.62 126.28C330.686 127.174 330.018 128.309 329.69 129.56C329.562 130.057 329.54 130.576 329.624 131.082C329.708 131.588 329.898 132.071 330.18 132.5C330.384 132.804 330.65 133.061 330.96 133.256C331.27 133.45 331.618 133.578 331.98 133.63ZM347.8 142.4C347.914 141.925 347.924 141.431 347.831 140.951C347.738 140.472 347.543 140.018 347.26 139.62C346.48 138.527 345.03 138.257 342.91 138.81L345.91 145.56C346.823 144.704 347.477 143.609 347.8 142.4Z" fill="#F4CF84"/>
<path d="M95.3201 126.04C113.965 126.04 129.08 110.925 129.08 92.28C129.08 73.6349 113.965 58.52 95.3201 58.52C76.6749 58.52 61.5601 73.6349 61.5601 92.28C61.5601 110.925 76.6749 126.04 95.3201 126.04Z" fill="#F28B36"/>
<path d="M89.98 123.62C108.625 123.62 123.74 108.505 123.74 89.86C123.74 71.2149 108.625 56.1 89.98 56.1C71.3348 56.1 56.22 71.2149 56.22 89.86C56.22 108.505 71.3348 123.62 89.98 123.62Z" fill="#F4B834"/>
<path d="M95.1498 83.26C96.657 82.986 98.2081 83.0821 99.6699 83.54C101.258 84.0752 102.619 85.1327 103.53 86.54C104.513 87.8496 105.183 89.3665 105.49 90.9749C105.797 92.5833 105.732 94.2406 105.3 95.82C104.46 99.1533 102.333 102.267 98.9199 105.16L101.35 110.59L97.0198 113.66L94.5999 108.22C92.5504 109.403 90.3731 110.349 88.1099 111.04C86.2295 111.646 84.2655 111.953 82.2899 111.95L81.3799 104.53C83.1647 104.545 84.9436 104.324 86.6699 103.87C88.4417 103.41 90.1437 102.714 91.7299 101.8L88.0198 93.45C86.2394 94.0668 84.414 94.5448 82.5599 94.88C81.0062 95.1508 79.4097 95.0376 77.9099 94.55C76.2636 93.9683 74.8568 92.8569 73.9099 91.39C72.6032 89.6175 71.8641 87.4908 71.7899 85.29C71.7556 83.0015 72.347 80.7471 73.4999 78.77C74.8525 76.4229 76.6373 74.3531 78.7599 72.67L76.3399 67.23L80.6599 64.17L83.1199 69.64C86.0678 67.8528 89.3861 66.765 92.8199 66.46L93.9899 73.69C91.1764 73.8224 88.4345 74.621 85.9899 76.02L89.8799 84.7C91.598 84.0884 93.3595 83.6071 95.1498 83.26ZM82.0399 86.7C82.9793 86.8001 83.9293 86.7221 84.8399 86.47L81.6799 79.35C80.7444 80.2469 80.0763 81.3858 79.7499 82.64C79.6223 83.1355 79.5999 83.6523 79.6843 84.157C79.7687 84.6616 79.958 85.143 80.2399 85.57C80.4444 85.8736 80.7102 86.1311 81.0202 86.3257C81.3302 86.5203 81.6775 86.6478 82.0399 86.7ZM97.8599 95.47C97.9762 94.9974 97.9891 94.5052 97.8976 94.0271C97.8062 93.549 97.6125 93.0963 97.3299 92.7C96.5632 91.6 95.1133 91.3267 92.9799 91.88L95.9799 98.63C96.9027 97.7635 97.5556 96.6488 97.8599 95.42V95.47Z" fill="#F28B36"/>
<path d="M93.09 83.52C94.5966 83.2479 96.1465 83.3405 97.61 83.79C99.1975 84.3274 100.557 85.3843 101.47 86.79C102.453 88.0977 103.123 89.613 103.43 91.2197C103.737 92.8265 103.672 94.4822 103.24 96.06C102.4 99.3933 100.273 102.507 96.86 105.4L99.2899 110.83L94.96 113.9L92.5399 108.47C90.4913 109.652 88.3137 110.595 86.0499 111.28C84.1699 111.889 82.2061 112.199 80.23 112.2L79.32 104.78C81.1048 104.795 82.8837 104.574 84.61 104.12C86.3818 103.66 88.0837 102.964 89.6699 102.05L85.96 93.7C84.1782 94.3121 82.3531 94.7901 80.5 95.13C78.9419 95.392 77.3436 95.2754 75.84 94.79C74.1952 94.2109 72.7886 93.1032 71.84 91.64C70.5331 89.8638 69.7941 87.7339 69.72 85.53C69.682 83.2442 70.2735 80.992 71.4299 79.02C72.7821 76.6697 74.5669 74.5966 76.69 72.91L74.2699 67.48L78.59 64.41L81.0499 69.89C83.9939 68.0943 87.3143 67.0057 90.75 66.71L91.9199 73.94C89.1067 74.0663 86.3642 74.8616 83.9199 76.26L87.8099 84.95C89.5301 84.3368 91.2955 83.8587 93.09 83.52ZM79.98 86.9C80.9194 87.0053 81.8703 86.9272 82.7799 86.67L79.62 79.56C78.6861 80.4541 78.018 81.5894 77.69 82.84C77.5627 83.3372 77.5405 83.8554 77.6249 84.3617C77.7093 84.8679 77.8983 85.351 78.1799 85.78C78.3849 86.0822 78.651 86.3381 78.9611 86.531C79.2711 86.7239 79.6183 86.8496 79.98 86.9ZM95.7999 95.67C95.9142 95.1966 95.9251 94.7041 95.8319 94.2261C95.7387 93.7481 95.5437 93.2958 95.26 92.9C94.48 91.81 93.0299 91.53 90.9099 92.09L93.9099 98.84C94.8203 97.99 95.475 96.9024 95.7999 95.7V95.67Z" fill="#F4CF84"/>
<path d="M145.24 70.87C145.24 65.9281 143.277 61.1884 139.784 57.6931C136.29 54.1977 131.552 52.2327 126.61 52.23C129.057 52.23 131.481 51.7478 133.742 50.8109C136.003 49.874 138.057 48.5009 139.787 46.7699C141.517 45.0389 142.889 42.9839 143.825 40.7225C144.76 38.461 145.241 36.0374 145.24 33.59C145.24 38.5336 147.204 43.2748 150.699 46.7705C154.195 50.2661 158.936 52.23 163.88 52.23C158.937 52.2326 154.197 54.1974 150.702 57.6925C147.207 61.1876 145.243 65.9272 145.24 70.87Z" fill="white"/>
<path d="M302.52 217.42C302.52 214.973 302.038 212.549 301.101 210.288C300.164 208.027 298.791 205.973 297.06 204.243C295.329 202.513 293.274 201.141 291.012 200.205C288.751 199.27 286.327 198.789 283.88 198.79C288.824 198.79 293.565 196.826 297.06 193.33C300.556 189.835 302.52 185.094 302.52 180.15C302.523 185.093 304.487 189.832 307.982 193.328C311.478 196.823 316.217 198.787 321.16 198.79C316.218 198.79 311.478 200.752 307.983 204.246C304.488 207.74 302.523 212.478 302.52 217.42Z" fill="white"/>
<path d="M307.12 81.08C307.117 76.1372 305.153 71.3976 301.657 67.9025C298.162 64.4074 293.423 62.4427 288.48 62.44C293.422 62.44 298.161 60.4775 301.657 56.984C305.152 53.4905 307.117 48.7519 307.12 43.81C307.12 46.2574 307.602 48.6808 308.539 50.9417C309.476 53.2026 310.849 55.2569 312.58 56.9869C314.311 58.717 316.366 60.0891 318.627 61.0248C320.889 61.9604 323.313 62.4413 325.76 62.44C320.816 62.44 316.075 64.4038 312.579 67.8995C309.084 71.3952 307.12 76.1364 307.12 81.08Z" fill="white"/>
</g>
<defs>
<clipPath id="clip0_163_1263">
<rect width="780.73" height="780.15" fill="white"/>
</clipPath>
</defs>
</svg>
