<svg width="286" height="236" viewBox="0 0 286 236" fill="none" xmlns="http://www.w3.org/2000/svg">
<g clip-path="url(#clip0_6_7589)">
<path d="M224.465 38.0496H61.5346C42.4481 38.0496 26.9755 53.5092 26.9755 72.5797V182.545C26.9755 201.616 42.4481 217.075 61.5346 217.075H224.465C243.552 217.075 259.025 201.616 259.025 182.545V72.5797C259.025 53.5092 243.552 38.0496 224.465 38.0496Z" fill="#C858EF"/>
<path d="M178.938 120.874C179.364 134.651 171.58 146.975 158.468 157.308C156.463 158.899 154.294 159.037 152.514 157.308C150.734 155.58 151.386 153.814 153.191 152.111C156.513 148.967 160.148 145.986 162.893 142.492C175.829 126.022 172.633 106.584 155.146 93.9841C153.178 92.5689 151.048 91.3414 149.004 90.0263C146.961 88.7113 146.234 86.9328 147.876 85.0165C148.536 84.1793 149.489 83.6232 150.542 83.4605C151.596 83.2978 152.673 83.5406 153.555 84.1399C166.754 91.4166 177.735 103.202 178.938 120.874Z" fill="white"/>
<path d="M160.512 119.91C160.9 132.347 155.021 141.815 145.068 149.706C143.125 151.259 140.894 151.585 139.077 149.856C137.259 148.128 137.823 146.099 139.891 144.471C145.557 139.924 149.919 134.664 151.637 128.051C154.382 117.142 149.656 108.763 140.468 102C139.214 101.073 137.785 100.297 136.469 99.4198C134.476 98.1674 133.962 96.414 135.429 94.5728C136.064 93.7173 137.003 93.1386 138.054 92.9567C139.104 92.7748 140.184 93.0037 141.07 93.596C150.433 98.8438 157.19 105.845 159.684 115.602C160.098 117.205 160.311 118.858 160.512 119.91Z" fill="white"/>
<path d="M142.123 121.739C142.361 130.255 138.362 136.693 131.681 142.116C129.625 143.782 127.369 144.183 125.413 142.254C123.458 140.325 124.235 138.647 126.178 137.056C130.302 133.687 133.335 129.829 133.874 124.82C134.514 118.795 131.555 114.249 126.516 110.592C125.677 109.978 124.711 109.477 123.859 108.863C122.066 107.611 121.603 105.945 122.881 104.192C123.169 103.749 123.542 103.367 123.978 103.069C124.415 102.771 124.906 102.563 125.423 102.456C125.941 102.348 126.475 102.345 126.994 102.445C127.513 102.545 128.006 102.747 128.447 103.039C136.494 107.486 141.508 113.635 142.123 121.739Z" fill="white"/>
<path d="M123.746 123.342C123.997 127.988 121.741 131.733 117.842 134.827C117.075 135.56 116.059 135.977 114.998 135.995C113.936 136.014 112.906 135.633 112.114 134.927C110.346 133.399 110.622 131.671 112.214 129.917C117.128 124.669 117.027 122.615 111.562 118.407C109.719 116.992 109.155 115.338 110.647 113.522C112.139 111.706 114.47 111.519 116.576 112.758C120.8 115.339 123.495 118.683 123.746 123.342Z" fill="white"/>
<path d="M143.89 181.593C119.697 181.593 96.9211 175.331 79.7481 164.059C62.1739 152.499 52.5094 136.968 52.5094 120.348C52.5094 103.728 62.199 88.1853 79.7732 76.6126C96.9462 65.3405 119.722 59.0782 143.915 59.0782C168.108 59.0782 190.884 65.3405 208.057 76.6126C225.606 88.1853 235.308 103.716 235.308 120.348C235.308 136.981 225.631 152.511 208.057 164.071C190.859 175.369 168.07 181.593 143.89 181.593ZM143.89 64.6641C96.3194 64.6641 57.6237 89.6381 57.6237 120.336C57.6237 151.033 96.3821 176.007 143.89 176.007C191.398 176.007 230.156 151.033 230.156 120.348C230.156 89.6632 191.448 64.6641 143.89 64.6641Z" fill="white"/>
<path d="M243.418 176.32L219.013 128.677L203.858 143.807L223.776 169.044L243.418 176.32Z" fill="#FFA79B"/>
<path d="M256.192 196.748C256.192 196.748 239.984 169.194 231.121 162.268C225.278 157.814 218.924 154.072 212.194 151.121C212.194 151.121 196.963 177.26 198.092 186.516C198.397 188.144 199.06 189.684 200.034 191.024C203.867 196.661 209.42 200.909 215.866 203.136C228.088 207.607 228.401 216.299 228.401 216.299C228.401 216.299 245.675 219.919 256.192 196.748Z" fill="#FFA79B"/>
<path d="M184.215 175.757C184.215 175.757 194.845 193.68 200.034 190.11C207.28 185.1 188.427 163.32 188.427 163.32C188.427 163.32 180.304 166.639 183.965 174.943" fill="#FFA79B"/>
<path d="M183.965 174.943C180.304 166.639 188.427 163.32 188.427 163.32C188.427 163.32 207.23 185.15 200.034 190.11C194.845 193.68 184.215 175.757 184.215 175.757L183.965 174.943Z" stroke="black" stroke-width="0.75" stroke-miterlimit="10" stroke-linecap="round"/>
<path d="M196.5 190.398C196.5 190.398 199.007 189.446 199.746 188.231C199.746 188.231 196.713 182.27 192.802 183.823C190.282 184.737 196.5 190.398 196.5 190.398Z" fill="#FFD4CF"/>
<path d="M191.122 174.404C191.122 174.404 201.752 192.327 206.941 188.77C214.187 183.76 195.334 161.98 195.334 161.98C195.334 161.98 187.211 165.286 190.871 173.603" fill="#FFA79B"/>
<path d="M191.122 174.404C191.122 174.404 201.752 192.327 206.941 188.77C214.187 183.76 195.334 161.98 195.334 161.98C195.334 161.98 187.211 165.286 190.871 173.603" stroke="black" stroke-width="0.75" stroke-miterlimit="10" stroke-linecap="round"/>
<path d="M203.131 189.822C203.131 189.822 205.638 188.87 206.365 187.655C206.365 187.655 203.344 181.681 199.433 183.247C196.913 184.224 203.131 189.822 203.131 189.822Z" fill="#FFD4CF"/>
<path d="M193.103 163.308C193.103 163.308 198.769 183.347 204.71 181.23C212.983 178.287 200.36 152.361 200.36 152.361C200.36 152.361 191.661 153.488 193.065 162.456" fill="#FFA79B"/>
<path d="M193.103 163.308C193.103 163.308 198.769 183.347 204.71 181.23C212.983 178.287 200.36 152.361 200.36 152.361C200.36 152.361 191.661 153.488 193.065 162.456" stroke="black" stroke-width="0.75" stroke-miterlimit="10" stroke-linecap="round"/>
<path d="M201.05 179.389C201.05 179.389 203.77 179.138 204.748 178.137C204.748 178.137 203.344 171.586 199.17 172.087C196.5 172.325 201.05 179.389 201.05 179.389Z" fill="#FFD4CF"/>
<path fill-rule="evenodd" clip-rule="evenodd" d="M128.86 25.237L232.037 100.86C233.844 102.186 235.051 104.175 235.392 106.39C235.732 108.604 235.179 110.863 233.854 112.671L193.541 167.566C192.214 169.372 190.224 170.578 188.007 170.918C185.791 171.259 183.53 170.706 181.721 169.382L78.5572 93.7588C76.7505 92.4349 75.5441 90.4483 75.2032 88.2358C74.8624 86.0233 75.415 83.766 76.7396 81.9606L117.052 27.053C118.377 25.2478 120.366 24.0424 122.58 23.7018C124.794 23.3612 127.054 23.9135 128.86 25.237Z" fill="#5D0E79"/>
<path fill-rule="evenodd" clip-rule="evenodd" d="M128.56 20.5653L231.761 96.1886C233.567 97.5124 234.774 99.499 235.115 101.712C235.456 103.924 234.903 106.181 233.578 107.987L193.24 162.932C192.585 163.829 191.759 164.588 190.81 165.165C189.861 165.742 188.806 166.126 187.708 166.294C186.61 166.463 185.489 166.413 184.41 166.148C183.33 165.883 182.314 165.407 181.42 164.748L78.2564 89.037C76.4488 87.7109 75.2421 85.7221 74.9013 83.5075C74.5605 81.293 75.1135 79.0338 76.4388 77.2264L116.752 22.3313C118.084 20.5339 120.076 19.3385 122.29 19.0073C124.504 18.6762 126.759 19.2366 128.56 20.5653Z" fill="#7E00AA"/>
<path d="M201.133 101.122C203.966 97.2625 203.118 91.8287 199.238 88.9853C195.359 86.142 189.917 86.9659 187.083 90.8256C184.25 94.6852 185.098 100.119 188.978 102.962C192.857 105.806 198.299 104.982 201.133 101.122Z" fill="#8E83FF"/>
<path d="M210.817 108.204C213.65 104.345 212.802 98.9108 208.923 96.0675C205.043 93.2241 199.601 94.048 196.767 97.9077C193.934 101.767 194.782 107.201 198.662 110.045C202.541 112.888 207.984 112.064 210.817 108.204Z" fill="#FFBB7A"/>
<path fill-rule="evenodd" clip-rule="evenodd" d="M202.554 94.5352H202.667C202.877 95.6911 202.849 96.8777 202.585 98.0225C202.321 99.1673 201.826 100.246 201.13 101.193C200.434 102.141 199.552 102.936 198.539 103.531C197.525 104.126 196.4 104.509 195.234 104.655C195.028 103.509 195.056 102.333 195.316 101.198C195.576 100.062 196.062 98.9911 196.745 98.0477C197.428 97.1043 198.295 96.3081 199.293 95.7067C200.291 95.1054 201.4 94.7112 202.554 94.5477V94.5352Z" fill="white" fill-opacity="0.42"/>
<path fill-rule="evenodd" clip-rule="evenodd" d="M122.706 50.549L137.347 61.2825C137.594 61.478 137.758 61.7592 137.807 62.0702C137.855 62.3812 137.785 62.6992 137.61 62.9608L129.826 73.5566C129.628 73.8013 129.346 73.963 129.035 74.0094C128.724 74.0558 128.406 73.9836 128.146 73.8071L113.505 63.0735C113.261 62.8785 113.099 62.5996 113.051 62.2915C113.002 61.9834 113.07 61.6683 113.242 61.4078L121.026 50.7994C121.223 50.5547 121.506 50.3931 121.817 50.3467C122.128 50.3003 122.445 50.3725 122.706 50.549Z" fill="#9F95FF"/>
<path fill-rule="evenodd" clip-rule="evenodd" d="M109.481 71.0768L121.59 79.9441C121.899 80.1433 122.164 80.4035 122.368 80.7087C122.573 81.0138 122.712 81.3575 122.779 81.7187C122.846 82.0799 122.838 82.4509 122.755 82.8088C122.673 83.1668 122.519 83.5042 122.301 83.8002C122.084 84.0962 121.808 84.3447 121.491 84.5303C121.174 84.7159 120.822 84.8347 120.457 84.8794C120.092 84.9242 119.722 84.8939 119.369 84.7904C119.017 84.6869 118.689 84.5124 118.406 84.2777L106.297 75.4103C105.988 75.2111 105.724 74.951 105.519 74.6458C105.315 74.3407 105.175 73.9969 105.108 73.6357C105.042 73.2745 105.05 72.9036 105.132 72.5456C105.214 72.1877 105.369 71.8503 105.586 71.5542C105.804 71.2582 106.079 71.0098 106.397 70.8242C106.714 70.6386 107.066 70.5197 107.43 70.475C107.795 70.4303 108.165 70.4606 108.518 70.5641C108.871 70.6676 109.199 70.842 109.481 71.0768Z" fill="white" fill-opacity="0.65"/>
<path fill-rule="evenodd" clip-rule="evenodd" d="M101.521 81.9105L131.781 104.066C132.067 104.275 132.308 104.538 132.492 104.841C132.676 105.143 132.799 105.478 132.853 105.828C132.907 106.177 132.891 106.534 132.808 106.877C132.724 107.221 132.573 107.545 132.364 107.83C132.155 108.115 131.892 108.357 131.589 108.541C131.287 108.724 130.951 108.847 130.601 108.901C130.251 108.955 129.894 108.939 129.551 108.856C129.207 108.772 128.883 108.621 128.597 108.412L98.3375 86.2315C98.0519 86.0226 97.8103 85.7595 97.6264 85.4573C97.4426 85.1551 97.3201 84.8198 97.266 84.4703C97.2118 84.1208 97.2271 83.7641 97.311 83.4205C97.3948 83.0769 97.5456 82.7532 97.7546 82.4678C97.9637 82.1825 98.227 81.9411 98.5294 81.7574C98.8318 81.5737 99.1675 81.4512 99.5173 81.3972C99.8671 81.3431 100.224 81.3583 100.568 81.4421C100.912 81.5259 101.236 81.6765 101.521 81.8854V81.9105Z" fill="white" fill-opacity="0.65"/>
<path fill-rule="evenodd" clip-rule="evenodd" d="M170.514 132.485L182.611 141.352C183.188 141.774 183.573 142.407 183.682 143.113C183.792 143.819 183.616 144.539 183.194 145.116C182.771 145.692 182.137 146.077 181.431 146.186C180.725 146.296 180.004 146.12 179.427 145.698L167.33 136.818C167.022 136.619 166.757 136.359 166.552 136.054C166.348 135.748 166.208 135.405 166.141 135.044C166.075 134.682 166.083 134.311 166.165 133.953C166.247 133.596 166.402 133.258 166.619 132.962C166.837 132.666 167.113 132.418 167.43 132.232C167.747 132.046 168.099 131.928 168.464 131.883C168.829 131.838 169.199 131.868 169.551 131.972C169.904 132.075 170.232 132.25 170.514 132.485Z" fill="white" fill-opacity="0.65"/>
<path fill-rule="evenodd" clip-rule="evenodd" d="M132.483 39.7529L144.592 48.6202C144.901 48.8194 145.166 49.0796 145.37 49.3848C145.574 49.6899 145.714 50.0336 145.781 50.3948C145.848 50.756 145.839 51.1269 145.757 51.4849C145.675 51.8428 145.521 52.1802 145.303 52.4763C145.085 52.7723 144.81 53.0208 144.492 53.2064C144.175 53.392 143.824 53.5108 143.459 53.5555C143.094 53.6002 142.724 53.57 142.371 53.4665C142.018 53.363 141.691 53.1885 141.408 52.9538L129.299 44.0864C128.99 43.8872 128.725 43.6271 128.521 43.3219C128.316 43.0167 128.177 42.673 128.11 42.3118C128.043 41.9506 128.051 41.5797 128.134 41.2217C128.216 40.8638 128.37 40.5264 128.588 40.2304C128.805 39.9343 129.081 39.6859 129.398 39.5003C129.716 39.3147 130.067 39.1959 130.432 39.1511C130.797 39.1064 131.167 39.1367 131.52 39.2402C131.873 39.3437 132.2 39.5182 132.483 39.7529Z" fill="white" fill-opacity="0.65"/>
<path fill-rule="evenodd" clip-rule="evenodd" d="M132.245 87.7845L144.341 96.6644C144.65 96.8636 144.915 97.1237 145.119 97.4289C145.324 97.734 145.464 98.0777 145.53 98.4389C145.597 98.8001 145.589 99.1711 145.507 99.5291C145.424 99.887 145.27 100.224 145.052 100.52C144.835 100.816 144.559 101.065 144.242 101.251C143.925 101.436 143.573 101.555 143.208 101.6C142.843 101.644 142.473 101.614 142.12 101.511C141.768 101.407 141.44 101.233 141.157 100.998L129.048 92.1305C128.763 91.9208 128.521 91.657 128.338 91.354C128.154 91.0511 128.032 90.7149 127.979 90.3649C127.925 90.0148 127.941 89.6576 128.026 89.3138C128.11 88.9699 128.262 88.646 128.472 88.3607C128.682 88.0753 128.946 87.834 129.249 87.6506C129.552 87.4673 129.889 87.3453 130.239 87.2918C130.589 87.2383 130.947 87.2543 131.291 87.3388C131.635 87.4234 131.959 87.5748 132.245 87.7845Z" fill="white" fill-opacity="0.65"/>
<path fill-rule="evenodd" clip-rule="evenodd" d="M155.472 104.78L167.581 113.66C167.89 113.859 168.155 114.12 168.359 114.425C168.564 114.73 168.704 115.074 168.77 115.435C168.837 115.796 168.829 116.167 168.747 116.525C168.664 116.883 168.51 117.22 168.292 117.516C168.075 117.812 167.799 118.061 167.482 118.246C167.165 118.432 166.813 118.551 166.448 118.596C166.083 118.64 165.713 118.61 165.36 118.506C165.008 118.403 164.68 118.228 164.397 117.994L152.288 109.076C152.003 108.867 151.761 108.604 151.577 108.302C151.393 108 151.271 107.665 151.217 107.315C151.163 106.966 151.178 106.609 151.262 106.265C151.346 105.922 151.497 105.598 151.706 105.313C151.915 105.027 152.178 104.786 152.48 104.602C152.783 104.418 153.118 104.296 153.468 104.242C153.818 104.188 154.175 104.203 154.519 104.287C154.863 104.371 155.187 104.521 155.472 104.73V104.78Z" fill="white" fill-opacity="0.65"/>
<path fill-rule="evenodd" clip-rule="evenodd" d="M178.236 121.463L190.395 130.368C190.681 130.577 190.922 130.84 191.106 131.142C191.29 131.444 191.412 131.78 191.467 132.129C191.521 132.479 191.505 132.835 191.422 133.179C191.338 133.523 191.187 133.846 190.978 134.132C190.769 134.417 190.506 134.658 190.203 134.842C189.901 135.026 189.565 135.148 189.215 135.202C188.865 135.256 188.508 135.241 188.165 135.157C187.821 135.073 187.497 134.923 187.211 134.714L175.115 125.834C174.806 125.635 174.541 125.375 174.337 125.07C174.132 124.764 173.992 124.421 173.926 124.06C173.859 123.698 173.867 123.327 173.949 122.969C174.032 122.611 174.186 122.274 174.404 121.978C174.621 121.682 174.897 121.434 175.214 121.248C175.531 121.062 175.883 120.944 176.248 120.899C176.613 120.854 176.983 120.884 177.336 120.988C177.688 121.091 178.016 121.266 178.299 121.501L178.236 121.463Z" fill="white" fill-opacity="0.65"/>
<path d="M222.41 156.294C222.41 156.294 198.956 126.611 193.09 126.611C189.555 126.611 187.713 131.145 189.706 134.388C191.699 137.632 198.656 145.072 199.796 148.792C200.937 152.511 203.093 161.241 208.22 166.326C213.347 171.411 225.832 169.996 222.41 156.294Z" fill="#FFA79B"/>
<path d="M222.41 156.294C222.41 156.294 198.956 126.611 193.09 126.611C189.555 126.611 187.713 131.145 189.706 134.388C191.699 137.632 198.656 145.072 199.796 148.792C200.937 152.511 203.093 161.241 208.22 166.326" stroke="black" stroke-width="0.75" stroke-miterlimit="10" stroke-linecap="round"/>
<path d="M194.218 126.01C194.218 126.01 191.711 127.137 191.135 128.402C191.135 128.402 194.569 134.138 198.367 132.322C200.812 131.232 194.218 126.01 194.218 126.01Z" fill="#FFD4CF"/>
<path d="M220.203 131.833C220.203 131.833 238.931 168.155 242.767 174.505" stroke="black" stroke-width="0.75" stroke-miterlimit="10" stroke-linecap="round"/>
</g>
<defs>
<clipPath id="clip0_6_7589">
<rect width="286" height="236" fill="white"/>
</clipPath>
</defs>
</svg>
