<svg width="36" height="36" viewBox="0 0 36 36" fill="none" xmlns="http://www.w3.org/2000/svg">
<g clip-path="url(#clip0_169_901)">
<path d="M29.697 13.9047V12.0495C30.1313 12.0495 30.5477 11.877 30.8547 11.57C31.1618 11.2629 31.3342 10.8465 31.3342 10.4123V10.1757C31.3342 9.74153 31.1618 9.3251 30.8547 9.01806C30.5477 8.71103 30.1313 8.53854 29.697 8.53854H6.31698C5.88277 8.53854 5.46634 8.71103 5.1593 9.01806C4.85226 9.3251 4.67978 9.74153 4.67978 10.1757V10.4123C4.67978 10.8465 4.85226 11.2629 5.1593 11.57C5.46634 11.877 5.88277 12.0495 6.31698 12.0495V13.9047C5.39112 13.9035 4.50352 13.5351 3.84884 12.8804C3.19415 12.2257 2.82581 11.3382 2.82458 10.4123V10.1757C2.82458 9.24951 3.19253 8.3612 3.84748 7.70624C4.50243 7.05129 5.39074 6.68335 6.31698 6.68335H29.697C30.6233 6.68335 31.5116 7.05129 32.1665 7.70624C32.8215 8.3612 33.1894 9.24951 33.1894 10.1757V10.4123C33.1882 11.3382 32.8199 12.2257 32.1652 12.8804C31.5105 13.5351 30.6229 13.9035 29.697 13.9047Z" fill="#FFBE0C"/>
<path d="M7.14246 10.6071H28.5375V28.0551C28.5375 28.3897 28.4045 28.7106 28.168 28.9472C27.9314 29.1838 27.6105 29.3167 27.2759 29.3167H8.40862C8.07405 29.3167 7.75317 29.1838 7.51659 28.9472C7.28 28.7106 7.14709 28.3897 7.14709 28.0551V10.6071H7.14246Z" fill="#F3AFE0"/>
<path d="M14.5447 23.2687C14.039 22.6997 13.7371 21.9784 13.6867 21.2187H12.3556V20.0314H13.6496C13.6785 19.4624 13.7814 18.8996 13.9557 18.3571C14.0952 17.895 14.3133 17.4604 14.6004 17.0724L16.0474 17.7263C15.8127 18.0507 15.6253 18.4067 15.4909 18.7838C15.3396 19.1849 15.2429 19.6045 15.2033 20.0314H17.1745C17.2905 19.5436 17.4456 19.0659 17.6383 18.6029C17.8012 18.2244 18.0525 17.8904 18.3711 17.629C18.7378 17.3545 19.1889 17.2167 19.6465 17.2394C19.9643 17.2361 20.2795 17.2983 20.5723 17.4219C20.8651 17.5456 21.1293 17.7282 21.3486 17.9582C21.8598 18.5331 22.1621 19.2635 22.2067 20.0314H23.5285V21.2187H22.2345C22.1926 22.0686 21.9425 22.8952 21.5063 23.6259L20.0454 23.0322C20.3744 22.4766 20.5859 21.8594 20.6669 21.2187H18.6447C18.541 21.694 18.3967 22.1595 18.2134 22.6101C18.0553 22.9877 17.8069 23.3206 17.4898 23.5795C17.1263 23.8533 16.6783 23.9911 16.2237 23.9691C15.9104 23.9762 15.5991 23.9176 15.3099 23.797C15.0207 23.6764 14.76 23.4964 14.5447 23.2687ZM15.5604 21.8773C15.6264 21.9459 15.7057 22.0002 15.7934 22.0369C15.8812 22.0736 15.9755 22.0919 16.0706 22.0907C16.1629 22.0931 16.2546 22.0748 16.3389 22.0371C16.4232 21.9993 16.4979 21.9432 16.5576 21.8727C16.7052 21.682 16.8182 21.467 16.8915 21.2373H15.2543C15.298 21.4684 15.4038 21.6833 15.5604 21.8588V21.8773ZM19.2708 19.396C19.1187 19.5893 19.0082 19.812 18.9462 20.05H20.6344C20.5896 19.7989 20.4718 19.5667 20.2958 19.3821C20.1516 19.2429 19.9583 19.1662 19.7578 19.1688C19.6622 19.1638 19.5669 19.1819 19.4797 19.2214C19.3925 19.261 19.3161 19.3208 19.2569 19.396H19.2708Z" fill="#7E00AA"/>
<path d="M17.782 10.6302H21.984C21.9477 11.7211 21.4889 12.7552 20.7044 13.5141C19.9199 14.273 18.8711 14.6972 17.7796 14.6972C16.6882 14.6972 15.6394 14.273 14.8549 13.5141C14.0704 12.7552 13.6116 11.7211 13.5753 10.6302H17.782Z" fill="#7E00AA"/>
</g>
<defs>
<clipPath id="clip0_169_901">
<rect width="36" height="36" fill="white"/>
</clipPath>
</defs>
</svg>
